<svg xmlns="http://www.w3.org/2000/svg" viewBox="0 0 51.069 49.32"><defs><style>.a{fill:#efd331;}</style></defs><path class="a" d="M46.782,17.96a77.1,77.1,0,0,0-8.8,3.748c-3.623,1.794-9.25,4.035-10.965,8.158a1.06,1.06,0,0,1-.064.158,6.255,6.255,0,0,0-.225.711.1.1,0,0,0-.013.05l0,.009-.008.018a2.833,2.833,0,0,1-.263.462c-.057.239-.148.572-.21.8.055.656.091,1.3.123,1.916.017.384.012.747.025,1.118s.012.746.016,1.113c-.006.13-.008.273,0,.407,0,.389,0,.783-.023,1.15,0,.287,0,.6-.021.864-.032.582-.083,1.111-.129,1.631-.019.18-.042.346-.056.516-.019.135-.03.274-.045.4-.023.166-.046.31-.07.476-.017.2-.053.417-.08.615,0,.031-.012.071-.02.112-.02.112-.035.215-.051.319-.02.089-.036.17-.057.26-.063.346-.128.67-.2.98a.3.3,0,0,1-.02.09c-.016.1-.05.2-.07.288-.057.238-.11.467-.168.683-.095.342-.2.671-.292.969s-.2.545-.3.8a11.745,11.745,0,0,1-.929,1.9,1.35,1.35,0,0,1-1.462.614,1.813,1.813,0,0,1-.312-.114l-.529-.261-.009,0a1.02,1.02,0,0,1-.32-1.313c.444-.608.666-.824.961-1.26.164-.254.319-.513.607-1.051.013,0,0-.009,0-.009L22.948,45c.236-.453.44-.931.63-1.405a20.561,20.561,0,0,0,.863-2.856c.029-.108.049-.22.068-.332q.111-.478.193-.971c.032-.184.059-.381.091-.565.035-.216.062-.436.088-.655.122-.938.191-1.857.221-2.716a1.64,1.64,0,0,0,.008-.251c.046-1.361.01-2.572-.047-3.506a3.233,3.233,0,0,1-1.135-1.155A27.546,27.546,0,0,0,6.264,18.98c-2.589-.538-7.51-1.989-5.972-5.244a.034.034,0,0,1,0-.022c0-.01.018-.014.022-.023a3.487,3.487,0,0,1,.215-.408,5.617,5.617,0,0,1,.442-.631c.017-.014.022-.023.039-.037a9.041,9.041,0,0,1,.782-.858A28.644,28.644,0,0,1,4.068,9.371c.263-.252.543-.518.846-.784.71-.638,1.527-1.313,2.451-2,0,.009,0,.013,0,.022.466-.354.959-.7,1.47-1.052l-.018-.009A30.98,30.98,0,0,1,13.48,2.957a.139.139,0,0,0,.044-.024c.319-.137.634-.264.949-.392.461-.18.918-.352,1.389-.5.262-.087.519-.164.777-.241.422-.122.849-.23,1.285-.333a22.273,22.273,0,0,1,2.661-.435,2.061,2.061,0,0,1,.973-.116,2.183,2.183,0,0,1,1.6,1.208,6.512,6.512,0,0,1,.72,2.386,2.189,2.189,0,0,1,.031.424c.034.3.054.612.065.916,0,.112.019.219.026.321a32.24,32.24,0,0,0,.158,4.278c.01.049.011.094.021.143a1.832,1.832,0,0,0,.033.3c.116.574.174,1.785.893,1.34a1.465,1.465,0,0,0,.522-.66l.039-.082a1.059,1.059,0,0,0,.054-.162,1.845,1.845,0,0,0,.067-.234c.008-.018.012-.05.021-.068.322-1.595-.212-4.092-.2-5.148a9.266,9.266,0,0,1,1.069-4.4l.105-.149A2.086,2.086,0,0,1,27,1.027L27.1.9c.022-.023.049-.032.062-.059a1.7,1.7,0,0,0,.157-.147A2.462,2.462,0,0,1,29.4.025a40.593,40.593,0,0,1,9.391,2.689c.591.247,1.183.515,1.785.811a27.864,27.864,0,0,1,3.481,2.042q.593.4,1.159.847A20.534,20.534,0,0,1,47.09,8.085a16.471,16.471,0,0,1,2.653,3.444,6.626,6.626,0,0,1,1.16,2.04,3.587,3.587,0,0,1,.163,1.128.826.826,0,0,1-.009.184.794.794,0,0,1-.019.157,1.817,1.817,0,0,1-.1.418l0,.009-.009.018C50.57,16.52,49.446,17.471,46.782,17.96Z"/></svg>