<svg xmlns="http://www.w3.org/2000/svg" viewBox="0 0 54.579 57.314"><defs><style>.a{fill:#e83f19;}</style></defs><path class="a" d="M47.726,35.178c.152-.142.32-.3.5-.465l.036-.034c.39-.358.837-.761,1.312-1.17l.049-.042c.213-.183.431-.366.651-.546l.11-.09c.218-.176.437-.35.656-.517l.071-.054c.246-.187.491-.365.731-.529a4.447,4.447,0,0,1,2.294-1h.006a1.021,1.021,0,0,1,.22.043.589.589,0,0,1,.217.122C49.543,25.81,39.7,28.679,39.7,28.679c.138-.039.266-.1.4-.143l.01,0a9.406,9.406,0,0,0,3.331-2.066l.02-.017c.008-.008.015-.017.024-.025a14.917,14.917,0,0,0,1.246-1.334l.008-.009.022-.029c.52-.633,1.006-1.31,1.471-2.008L46.264,23l0-.006c.532-.8,1.04-1.628,1.54-2.447q.249-.405.5-.806h0c.328-.532.659-1.056,1-1.558l0-.008c.357-.535.723-1.047,1.1-1.525a5.036,5.036,0,0,1-.69.38c-.077.035-.155.063-.232.094-.162.065-.324.124-.489.173-.088.026-.176.05-.265.072-.168.041-.338.074-.51.1-.076.012-.151.027-.228.036-.248.031-.5.053-.751.061-.284.011-.571.007-.859,0l-.187-.008c-.249-.011-.5-.027-.75-.046l-.111-.008c-.348-.028-.7-.059-1.046-.09q-.293-.026-.583-.046c-.1-.008-.206-.014-.309-.02-.218-.014-.434-.022-.65-.027l-.2-.006c-.27,0-.539.007-.8.025-.073,0-.146.015-.219.022-.2.019-.409.048-.611.085-.081.014-.161.028-.241.046a5.721,5.721,0,0,0-.79.227,8.078,8.078,0,0,0-.781.347,10.029,10.029,0,0,0-1.963,1.249l0,0-.009.009a24.317,24.317,0,0,0-2.316,2.243c-.218.229-.434.456-.659.689-.194.2-.39.4-.594.606a6.194,6.194,0,0,0,.537-.614h0l0,0a6.434,6.434,0,0,0,.418-.613l.01-.016a6.871,6.871,0,0,0,.333-.629l.011-.021.009-.022a7.838,7.838,0,0,0,.342-.874l.007-.019,0-.006a9.412,9.412,0,0,0,.282-1.176l0-.014,0-.015c.029-.168.053-.337.075-.507,0-.036.011-.071.015-.106l0-.028a19.654,19.654,0,0,0-.308-5.563c-.264-1.475-.65-2.926-1.031-4.378-.138-.529-.277-1.057-.407-1.587-.019-.08-.046-.179-.078-.289-.044-.157-.095-.333-.156-.538-.284-.949-.718-2.357-.958-3.58-.04-.2-.072-.394-.1-.58-.005-.033-.009-.065-.013-.1-.021-.156-.036-.305-.046-.446,0-.031,0-.061-.006-.091a2.5,2.5,0,0,1,.067-.843A.846.846,0,0,1,32.661,0c-.06.093-.124.185-.185.278q-.311.469-.636.935l-.113.162q-.324.458-.657.912l-.09.123c-.212.288-.427.576-.642.863C27.991,6.4,25.5,9.5,24.36,13.214q-.147.472-.262.958c-.23.976-.4,1.972-.547,2.974l0,.029,0,.02c-.132.942-.232,1.887-.279,2.834v0c-.022.432-.028.864-.03,1.294,0,.15-.011.3-.009.45A6.16,6.16,0,0,0,23.1,20.61l-.008-.041a8.963,8.963,0,0,0-.931-2.512l-.057-.1c-.179-.326-.373-.648-.581-.963l0-.006,0,0a23.5,23.5,0,0,0-2.835-3.413l-.116-.117c-.3-.3-.594-.592-.872-.857l-.007-.006-.043-.041c-.7-.664-1.293-1.2-1.65-1.562l-.952-.964c-.252-.255-.506-.511-.773-.783l-.21-.213L12.164,7.1l-.8-.81L10.992,10l-.111,1.113-.166,1.663c-.1.442-.175.875-.234,1.3a17.488,17.488,0,0,0,1.132,9.083c.021.051.043.1.064.148.116.281.233.552.352.806l.006.014c.028.059.055.11.083.167.192.4.383.768.566,1.091l.022.04c.085.151.165.284.245.417.029.047.058.1.086.142.073.119.14.223.206.325.03.047.059.092.088.135.06.089.112.167.163.241l.085.12c.042.059.08.112.114.158l.068.091.061.08.043.054a12.978,12.978,0,0,0-6.741-3.637L7.1,23.548a15.879,15.879,0,0,0-7.1.207.611.611,0,0,1,.315,0,.821.821,0,0,1,.108.038,1.188,1.188,0,0,1,.242.113c.042.025.085.055.129.086a3.16,3.16,0,0,1,.255.208c.042.038.083.074.125.116.1.1.213.22.321.347.025.029.049.053.074.083.137.165.277.346.418.54.023.03.045.064.068.1q.178.251.359.523c.037.056.074.114.111.171.11.171.22.345.33.525l.1.165c.125.208.25.419.373.634l.041.07c.843,1.469,1.619,3.017,2.132,3.967l.041.077c.034.063.065.119.1.176.045.081.086.154.125.221.024.042.049.083.071.119.056.094.108.175.148.228l.071.09.006.007c.208.271.431.548.663.829l.071.086a20.652,20.652,0,0,0,1.594,1.714L8.412,35a11.51,11.51,0,0,0,1.621,1.306h0a7.382,7.382,0,0,0,.753.435c1.836.9,1.916.779,3.983.793C11,37.512,9.991,38.164,7.6,40.562c-.316.319-3.223,3.664-3.585,3.54.5.171.993.325,1.476.468.114.034.221.059.334.092.286.082.565.157.843.23.2.052.4.116.594.163s.37.077.559.119c.264.06.526.117.782.168.372.073.733.136,1.089.193.241.038.482.078.715.109.358.047.7.082,1.044.113.211.019.426.042.632.055.356.023.7.032,1.036.037.171,0,.349.013.515.012.405,0,.791-.021,1.17-.047.086-.005.179-.005.264-.012q.688-.056,1.32-.156c.114-.017.217-.043.329-.062.3-.054.595-.109.875-.175.148-.035.285-.076.427-.114.229-.062.456-.123.672-.192.146-.046.283-.1.424-.147.194-.069.386-.138.569-.213.138-.055.268-.113.4-.171.17-.075.336-.152.5-.231.124-.061.244-.123.362-.187.151-.081.3-.162.437-.246.109-.064.216-.127.318-.192.137-.087.266-.174.393-.261.09-.063.182-.125.267-.187.126-.092.242-.183.356-.274.072-.058.148-.115.216-.172.12-.1.227-.2.334-.3.049-.045.1-.091.151-.135.147-.139.282-.274.4-.4a28.064,28.064,0,0,0-1.583,14.3,1.213,1.213,0,0,0,1.195,1.024h0a1.209,1.209,0,0,0,1.218-1.278,63.772,63.772,0,0,1,.423-13.118A12.228,12.228,0,0,0,28.045,46.5a12.2,12.2,0,0,0,5.723,1.776c4.894.453,7.056-.523,11.447,1.607-.246-.12-.372-1.8-.449-2.1a8.78,8.78,0,0,0-1.17-2.595,17.51,17.51,0,0,0-4.26-4.335,13.509,13.509,0,0,0-4.063-1.763c4.627,1.633,8.282-.034,11.718-3.223.064-.059.157-.147.264-.248l.425-.4Z"/></svg>