<svg xmlns="http://www.w3.org/2000/svg" viewBox="0 0 32.124 58.461"><defs><style>.a{fill:#ea8f35;}</style></defs><path class="a" d="M32.122,29.37a35.979,35.979,0,0,0-.472-5.2c-.073-.555-.143-1.111-.2-1.667-1.366.2-2.6.978-3.966,1.228h0a4.858,4.858,0,0,1-.595.071,15.522,15.522,0,0,0,.213-1.617c.013-.155.015-.31.024-.466.022-.4.037-.8.034-1.2,0-.156-.006-.311-.01-.467q-.018-.639-.068-1.277c-.008-.109-.016-.217-.026-.325-.2-2.129-.615-4.254-1-6.311-.969.627-2.081,1.228-3.105,1.76.021-.255.026-.487.024-.711,0-.166-.006-.323-.015-.476V12.7l0-.022a5.167,5.167,0,0,0-.61-2.194c-.012-.023-.023-.047-.036-.07-.075-.137-.158-.274-.245-.41-.033-.052-.068-.1-.1-.157-.081-.119-.164-.24-.253-.361-.061-.084-.128-.17-.193-.256s-.146-.192-.226-.291c-.15-.189-.309-.384-.478-.588-.187-.227-.388-.445-.6-.66-.059-.061-.12-.121-.181-.182-.16-.159-.323-.316-.491-.471l-.181-.166q-.329-.3-.67-.581l-.145-.119c-.184-.152-.368-.3-.555-.453-.808-.65-1.631-1.288-2.388-1.961-.033-.028-.065-.058-.1-.087-.211-.189-.416-.383-.614-.58l-.073-.071c-.205-.209-.4-.419-.589-.635a7.335,7.335,0,0,1-1.4-2.34A.312.312,0,0,1,12.823,0l-.006.024q-.152.687-.311,1.35c-.042.17-.087.335-.13.5-.068.268-.135.539-.208.8-.081.3-.171.589-.259.882-.04.131-.076.265-.117.4-.1.325-.215.646-.328.965-.034.095-.063.192-.1.286-.116.315-.243.627-.371.938-.039.1-.074.2-.115.292-.121.285-.257.569-.391.853-.056.12-.106.242-.166.362-.142.29-.3.58-.459.869-.061.113-.115.225-.179.338q-.342.6-.731,1.206c-1.316,2.034-1.986,3.2-1.48,5.766-1.079-.413-2.252-.879-3.288-1.391-.1,1.55-.225,3.138-.261,4.727v.024c-.012.525-.01,1.049,0,1.573,0,.125.008.251.012.376.015.415.042.828.077,1.241.015.168.029.335.047.5.043.39.1.776.169,1.161.027.163.05.326.082.488a15.569,15.569,0,0,0,.4,1.585c-1.615.1-3.11-.72-4.682-.762.009.474.006.949,0,1.424-.019,1.6-.083,3.206.05,4.745v.009l0,.023c.02.237.046.471.078.7v.013A8.975,8.975,0,0,0,2.09,36.951l.018.025.017.018c.1.124.209.246.323.366.158.172.323.341.5.506,1.914,1.729,4.889,2.485,7.441,2.87a.773.773,0,0,1,.109.015c.046.007.087.008.133.015.258.034.508.062.748.081.076.007.15.01.224.014.211.014.419.024.62.028.081,0,.162,0,.243,0,.194,0,.387,0,.576-.008l.209-.007c.689-.03,1.372-.091,2.108-.149.374-.03.756-.059,1.171-.08.045.289.095.647.145,1.038,0,.046.011.088.017.135.016.128.031.265.046.4q.018.164.036.336c.014.142.028.286.042.437.008.094.016.194.024.292.026.327.05.67.069,1.028,0,.087.011.172.015.261.044.972.054,2.037,0,3.145-.031.64-.085,1.293-.162,1.95-.008.063-.017.127-.025.191-.082.646-.186,1.294-.326,1.938-.008.035-.018.068-.026.1q-.141.63-.326,1.249c-.038.128-.082.253-.123.38q-.153.475-.335.938-.088.225-.184.447c-.127.291-.266.576-.412.856-.071.136-.137.274-.212.406a11.228,11.228,0,0,1-.744,1.158,1.288,1.288,0,0,0,2.091.833,22.877,22.877,0,0,0,1.791-5.117q.111-.462.211-.962c.025-.121.047-.245.071-.37.053-.28.1-.567.149-.863.022-.137.044-.272.064-.412q.082-.565.145-1.163c.073-.7.119-1.433.144-2.194,0-.114,0-.229.007-.345a30.278,30.278,0,0,0-.193-4.112c0-.04-.006-.079-.011-.119-.08-.671-.18-1.353-.312-2.051a50.456,50.456,0,0,0,5.412-1.282,14.013,14.013,0,0,0,1.425-.478c.078-.031.156-.058.233-.09A13.193,13.193,0,0,0,26.557,38c.081-.044.161-.089.24-.134A12.706,12.706,0,0,0,28,37.091c.044-.033.086-.068.13-.1A12.451,12.451,0,0,0,30,35.265a8.666,8.666,0,0,0,.688-.91c.044-.066.085-.132.126-.2a8.152,8.152,0,0,0,.462-.839c.014-.029.03-.059.044-.089a8.461,8.461,0,0,0,.635-2.075l0-.007v-.012c.05-.285.088-.573.114-.862v-.01q.037-.429.047-.863V29.37Z"/></svg>